# xmcd CD database file
#
# Track frame offsets:
#	150
#	26671
#	59468
#	87911
#	118273
#	146423
#	165604
#
# Disc length: 2510 seconds
#
# Revision: 0
# Processed by: cddbd v1.5.2PL0 Copyright (c) Steve Scherf et al.
# Submitted via: CDex 1.70beta2
#
DISCID=5c09cc07
DTITLE=Paul Chambers - Bass on top
DYEAR=1957
DGENRE=Jazz
TTITLE0=Yesterdays
TTITLE1=You'd be so nice to come home to
TTITLE2=Chasin' the bird
TTITLE3=Dear old  stockholm
TTITLE4=The theme
TTITLE5=Confessin'
TTITLE6=Chamber mates
EXTD=YEAR: 1957
EXTT0=
EXTT1=
EXTT2=
EXTT3=
EXTT4=
EXTT5=
EXTT6=
PLAYORDER=
